<svg width="300" height="100" viewBox="0 0 300 100" fill="none" xmlns="http://www.w3.org/2000/svg">
<rect x="65" y="40" width="22" height="50" fill="#654AEC"/>
<rect x="95" y="10" width="22" height="80" fill="#654AEC"/>
<rect x="125" y="10" width="22" height="80" fill="#654AEC"/>
<rect x="65" y="10" width="22" height="22" fill="#FF58BE"/>
<path fill-rule="evenodd" clip-rule="evenodd" d="M213 50C213 59.9411 204.941 68 195 68C185.059 68 177 59.9411 177 50C177 40.0589 185.059 32 195 32C204.941 32 213 40.0589 213 50ZM213 85.7308C207.59 88.4618 201.474 90 195 90C172.909 90 155 72.0914 155 50C155 27.9086 172.909 10 195 10C217.091 10 235 27.9086 235 50C235 50.6707 234.983 51.3374 234.951 52H235V90H213V85.7308Z" fill="#654AEC"/>
</svg>
