<svg width="300" height="120" viewBox="0 0 300 120" fill="none" xmlns="http://www.w3.org/2000/svg">
<rect x="65" y="50" width="22" height="50" fill="#654AEC"/>
<rect x="95" y="20" width="22" height="80" fill="#654AEC"/>
<rect x="125" y="20" width="22" height="80" fill="#654AEC"/>
<rect x="65" y="20" width="22" height="22" fill="#FF58BE"/>
<path fill-rule="evenodd" clip-rule="evenodd" d="M213 60C213 69.9411 204.941 78 195 78C185.059 78 177 69.9411 177 60C177 50.0589 185.059 42 195 42C204.941 42 213 50.0589 213 60ZM213 95.7308C207.59 98.4618 201.474 100 195 100C172.909 100 155 82.0914 155 60C155 37.9086 172.909 20 195 20C217.091 20 235 37.9086 235 60C235 60.6707 234.983 61.3374 234.951 62H235V100H213V95.7308Z" fill="#654AEC"/>
</svg>
