<svg width="200" height="200" viewBox="0 0 200 200" fill="none" xmlns="http://www.w3.org/2000/svg">
<rect width="200" height="200" rx="28.2353" fill="#654AEC"/>
<path fill-rule="evenodd" clip-rule="evenodd" d="M67.6471 76.4707H80.5882V123.53H67.6471V76.4707ZM50 94.1178H62.9412V123.53H50V94.1178ZM98.2353 76.4707H85.2941V123.53H98.2353V76.4707Z" fill="white"/>
<rect x="50" y="76.4707" width="12.9412" height="12.9412" fill="#FF58BE"/>
<path fill-rule="evenodd" clip-rule="evenodd" d="M137.059 100C137.059 105.848 132.318 110.588 126.471 110.588C120.623 110.588 115.882 105.848 115.882 100C115.882 94.1524 120.623 89.4119 126.471 89.4119C132.318 89.4119 137.059 94.1524 137.059 100ZM137.059 121.018C133.876 122.625 130.279 123.53 126.471 123.53C113.476 123.53 102.941 112.995 102.941 100C102.941 87.0052 113.476 76.4707 126.471 76.4707C139.466 76.4707 150 87.0052 150 100L150 123.53H137.059V121.018Z" fill="white"/>
</svg>
